<?xml version="1.0" encoding="UTF-8"?>
<svg id="Objects" xmlns="http://www.w3.org/2000/svg" viewBox="0 0 2200 2200">
  <defs>
    <style>
      .cls-1 {
        fill: #b1ce39;
      }
    </style>
  </defs>
  <path class="cls-1" d="M1107.8,1902.33l-263.33,3.07c-56.29.66-110.54,3.59-166.57-.31-88.41-6.15-170.76-41-235.31-100.21-65.43-60.03-106.83-140.06-107.97-229.06l-2.52-197.29-2.47-202.66-2.96-214.86-3.96-303.05c-2.79-213.44,177.74-355.28,377.31-357.45l270.92-2.94,256.57-2.88,301.57-1.77c165.27,11.39,331.58,150.75,335.88,316.27l2.76,106.49,3.17,263,3.3,271,2.64,251.11c.45,42.52,2.63,83.05-7.38,124.33-40.27,166.17-197.42,269.68-363.26,271.89l-398.38,5.3Z"/>
  <g>
    <path d="M467.67,996.98l-.08-64.35c-.02-13.18,12.4-20.63,24.78-20.67l305.46-.99,116.41-1.85,67.5-1.27,44.51-1.93c13.19-.57,25.58-2.01,38.42-3.11l41.59-3.56,29.19-3.54,25.79-3.78,33.39-5.13c-3.91-21.39-16.28-33.1-35.9-35.86-7.59-1.07-14.98-2.86-23.87-2.88l-387.47-.97-86.1-1.84c-11.06-.24-22.54-2.4-33.81-2.94l-45.06-2.15c-8.02-.38-15.28-2.23-23.57-2.59-9.97-.44-21.47-3.17-26.03-12.96-4.86-10.43-.83-22.13,3.06-32.6,15.97-43.02,41.51-79.93,77.33-108.93,26.27-21.27,45.1-34.65,74.93-51.45l34.01-19.14,39.57-20.98c4.09-2.17,9.24-4.33,11.9-2.52,3.65,2.48,6.28,8.92,4.96,12.67l-25.58,72.58-182.4,89.85c9.15,6.44,18.45,5.34,28.52,6.02l30.94,2.07,110.13,3.24,345.75,1.07c36.6.11,38.62-.58,72.61,8.27,10.79,2.81,23.22,9.11,31.45,15.78,26.43,21.42,26.57,50.24,21.18,80.13l-5.01,27.78c23.24,3.69,44.45,4.89,67.1-1.59,7.92-2.27,18.26-17,18.29-27.34l.64-230.76,27.46-60.67c.91-2,4.36-4.59,6.15-5.49,1.82-.92,8.44.59,8.45,5.18l.29,278.49c0,8.99,5.17,19.77,8.19,26.58,8.3,18.68,40.19,16.77,57.08,17.89,66.47,4.39,128.84.59,185.44-41.33l-38.42-16.76c-42.47-18.53-102.01-43.81-131.68,7.72l-10.22-7.83,12.92-23.74c15.32-28.16,36.5-63.26,71.35-68.92,63.91-10.38,101.22,46.74,168.04,64.17,13.98,3.65,28.43,3.41,43.36,3.32,5.12-.03,13.48,5.32,11.03,11.08l-22.47,52.76c-34.88-.54-67.29-.74-100.33,5.96-39.96,8.1-63.04,30.81-90.79,58.94-20.57,20.85-46.48,32.6-75.61,37.24-10.62,1.69-22.05,1.48-33.51,2.43-54.14,4.5-80.74-23.36-93.26-75.69-5.49,14.72-9.53,26.65-15.27,39.11-11.57,25.12-37.74,39.68-65.08,36.66-14.37-1.59-28.8-.26-42.17-2.54-23.12-3.94-43.53-10.24-65.13-19.57-7.55-3.26-18.35,1.55-26.1,2.73l-44.71,6.77-31.73,3.7c-12.04,1.4-24.82,2.08-37.01,2.86l-62.36,3.99-135.29,2.23-303.16.97Z"/>
    <path d="M572.52,1627.32c-13.4,7.06-32.69,4.45-44.86-3.99l-70.58-48.9c-2.14-1.48-4.02-5.57-3.72-7.4.36-2.2,5.06-4.81,7.49-4.82l47.05-.25c3.06-.02,9.66-2.41,12.82-2.74,57.97-6.06,114.67-26.17,154.95-71.82-1.99-9.56-6.67-19.73-7.74-29.32-5.49-49.21,25.71-97.48,68.65-119.48,25.23-12.93,52.62-21.07,80.5-18.6l5.54,35.17c4.69,29.81,15.94,85.45,45.77,99.32,4.53,2.11,14.95,7.1,19.82,7.12l144.09.59-2.17-30.71c-.49-6.95,1.16-18.01,2.32-25.73,4.55-30.42,20.85-56.29,41.18-78l3.35-16.24,7.68-37.59c1.44-7.06,2.78-14.65,9.42-18.99,47.09,22.62,71.88,36.9,110.82,72.34,15.58,14.18,36.18,41.23,44.27,61.08,23.71,58.15,8.29,96.92-12.8,152.03-1.94,5.06-9.79,13.1-14.73,15.02-14.99,5.8-30.9,1.82-45.37-2.22l-39.98-11.17c-18.24-5.09-35.16-10.72-52.34-20.2-68.12,37.99-116,21.98-191.17,26.42-31.99,1.89-58.51-9.15-76.78-40.32l-27.21,58.03-80.72-45.28c-7.48-4.2-14.32-13.34-22-18.2-23.11,46.1-69.62,101.69-113.56,124.84ZM1152.14,1429.88c1.43-24.22-9.57-47.38-26.08-64.6-12.36-12.88-60.03-.14-74.64,23.14-6.62,10.54.21,24.38,7.79,32.84,13.54,15.11,31.44,22.97,49.97,31.13,15.56,6.85,42.2-9.6,42.96-22.51ZM795.58,1482.71c1.62.87,6.59,1.12,6.62-.42.02-1.02-.02-4.73-.47-6.08-5.56-16.83-11.43-37.73-14.65-55.76l-7.15-40.11c-31.07,5.83-56.5,3.45-83.52,20.03-4.42,2.71-9.3,13.74-7.02,17.85,6.89,12.47,18.25,17.26,29.76,23.44l76.42,41.05ZM1238.76,1488.3c-10.08-35.4-29.28-59.86-51.13-84.17-3.51-4.51-8.2-8.84-12.93-9.74-1.71,28.34-11.04,49.16-24.9,70.65l88.96,23.26Z"/>
    <path d="M1558.42,1251.97c28.81-29.96,74.87-26.2,96.49-.88,5.46,6.4,12.3,14.79,16.47,22.68,24.67,46.7,25.45,117.15,12.99,169.51-13.43,56.43-77.04,79.9-127.28,92.22-9.21,2.26-41.45,8.11-50.07,8.86l-18.74,1.63c-30.88,2.69-61.49.58-92.58,1.64-31.28,1.07-59.23-11.62-71.98-41.54-7.82-18.35-12.54-39.18-12.61-60.77l-.72-240.72,30.24-65.88c4.15-1.63,10.05-1.7,14.07.3l.28,278.35c.02,22.52,9.25,39.04,33.02,43.23,11.11,1.96,24.65,1.99,37.15,1.93l170.54-.81c5.58-.03,14.46-3.22,20.15-3.9,19-2.24,35.33-7.89,53.83-14.7,2.77-15.15,4.66-29.4,2.85-44.48l-2.64-21.96c-3.11-25.88-11.26,17.16-27.45,33.19-24.19,23.96-62.41,26.79-91.08,8.21-25.07-16.25-30.88-60.41-25.72-89.8,4.86-27.68,12.72-55.46,32.79-76.33ZM1660.54,1350.88c-17.26-41.87-65.46-52.3-101.82-38.95-14.33,5.27-25,19.72-17.92,34.65,14.03,29.61,93.07,20.23,119.74,4.29Z"/>
    <path d="M1727.49,497.46l-315.56,69.14c4.53-11.44,11.36-18.39,18.81-27.93l319.59-71.87-22.84,30.67Z"/>
    <path d="M1606.64,1185.55l-48.7-50.93c5.68-6.6,9.95-11.56,15.16-16.7l34.91-34.43,39.96,40.57c2.95,2.99,6.53,13.41,3.6,16.36l-44.93,45.13Z"/>
    <rect x="1463.21" y="626.44" width="71.56" height="71.56" transform="translate(-29.218 1253.9115) rotate(-45)"/>
  </g>
</svg>

